<svg xmlns="http://www.w3.org/2000/svg" width="70" height="70" viewBox="0 0 48 48">
  <defs>
    <linearGradient id="viza-master-mir-a" x1="100%" x2=".612%" y1="312.751%" y2="312.751%">
      <stop offset="0%" stop-color="#1E5CD8"/>
      <stop offset="100%" stop-color="#02AFFF"/>
    </linearGradient>
  </defs>
  <g fill="none" fill-rule="evenodd" transform="translate(7 4.5)">
    <g transform="translate(2.175 29.825)">
      <path fill="#006848" fill-rule="nonzero" d="M6.58413185,1.10623782 L5.46644033,4.97807019 L5.27521922,4.97807019 L4.1575277,1.10623782 C3.96630659,0.451054549 3.36624406,0 2.68046692,0 L0,0 L0,8.42847862 L2.68376305,8.42847862 L2.68376305,3.4471123 L2.87499922,3.4471123 L4.41140551,8.42847862 L6.33026909,8.42847862 L7.86337924,3.4471123 L8.05460036,3.4471123 L8.05460036,8.42847862 L10.7383785,8.42847862 L10.7383785,0 L8.05789649,0 C7.37541548,0 6.77536801,0.451054549 6.58413185,1.10623782 Z M21.4437052,8.42847862 L24.1439791,8.42847862 L24.1439791,5.9361474 L26.8608089,5.9361474 C28.2817601,5.9361474 29.4918488,5.13280803 29.9599303,4.00352735 L21.4437052,4.00352735 L21.4437052,8.42847862 Z M16.659791,0.888941104 L14.7706229,4.98136633 L14.5793867,4.98136633 L14.5793867,0 L11.8956236,0 L11.8956236,8.42847862 L14.1738565,8.42847862 C14.773919,8.42847862 15.3178569,8.07947941 15.5684536,7.53954506 L17.4576369,3.45040844 L17.6489332,3.45040844 L17.6489332,8.42847862 L20.3326512,8.42847862 L20.3326512,0 L18.0544033,0 C17.4543257,0 16.9103878,0.348991693 16.659791,0.888941104 Z"/>
      <path fill="url(#viza-master-mir-a)" d="M27.1278261,0 C27.902614,0 28.6048869,0.296313702 29.1357004,0.783585123 C29.7291707,1.32353454 30.1017245,2.10054244 30.1017245,2.96643316 C30.1017245,3.14421385 30.0819476,3.31871346 30.0522674,3.48991693 L25.0671835,3.48991693 C23.3791097,3.48991693 21.9482114,2.38367911 21.4668477,0.856017359 C21.4602536,0.839554736 21.4569566,0.81980049 21.4503627,0.800046243 C21.4371747,0.753953 21.4272843,0.704568136 21.4140963,0.658474893 C21.3646412,0.444469801 21.3316702,0.227173086 21.3184822,0 L27.1278261,0 Z"/>
    </g>
    <g transform="translate(.07 .127)">
      <polygon fill="#FF5F00" points="13.249 13.044 20.321 13.044 20.321 25.806 13.249 25.806"/>
      <path fill="#EB001B" d="M13.7101182,19.424803 C13.7101182,16.8365376 14.9145584,14.5301626 16.7852849,13.0438321 C15.4270862,11.9675237 13.6844918,11.3012376 11.8137654,11.3012376 C7.35477367,11.3012376 3.74145281,14.9401848 3.74145281,19.424803 C3.74145281,23.909421 7.35477367,27.5483683 11.8137654,27.5483683 C13.7101182,27.5483683 15.4270862,26.8820822 16.7852849,25.8057738 C14.9145584,24.3194432 13.7101182,22.0130683 13.7101182,19.424803 Z"/>
      <path fill="#F79E1B" d="M29.8547432,19.424803 C29.8547432,23.909421 26.2414224,27.5483683 21.7824307,27.5483683 C19.8860779,27.5483683 18.1691099,26.8820822 16.8109113,25.8057738 C18.6816376,24.3194432 19.8860779,22.0130683 19.8860779,19.424803 C19.8860779,16.8365376 18.6816376,14.5301626 16.7852849,13.0438321 C18.1691099,11.9675237 19.9117043,11.3012376 21.7824307,11.3012376 C26.2414224,11.3012376 29.8547432,14.9401848 29.8547432,19.424803 Z"/>
      <path fill="#2A2A6C" fill-rule="nonzero" d="M14.7351737,0.256263891 L12.7363154,9.55864316 L10.3274348,9.55864316 L12.3519195,0.256263891 L14.7351737,0.256263891 Z M24.8832238,6.25283894 L26.1389168,2.76765002 L26.8564558,6.27846533 L24.8832238,6.27846533 L24.8832238,6.25283894 Z M27.5739947,9.55864316 L29.8034905,9.55864316 L27.8558849,0.256263891 L25.8057738,0.256263891 C25.3444988,0.256263891 24.960103,0.512527782 24.7807182,0.948176394 L21.1673974,9.55864316 L23.7044099,9.55864316 L24.1913113,8.17481812 L27.266478,8.17481812 L27.5739947,9.55864316 Z M21.2955293,6.50910282 C21.3211557,4.04896948 17.8872196,3.92083753 17.912846,2.8189028 C17.912846,2.48575974 18.2203626,2.12699029 18.9379015,2.05011113 C19.296671,1.99885835 20.2448474,1.97323196 21.3211557,2.46013335 L21.7311779,0.512527782 C21.141771,0.28189028 20.3986057,0.102505557 19.4760557,0.102505557 C17.0928015,0.102505557 15.4270862,1.35819862 15.4014598,3.17767225 C15.3758334,4.51024448 16.6059001,5.27903615 17.5028237,5.71468477 C18.4253737,6.17595977 18.7585168,6.48347644 18.7585168,6.86787228 C18.7585168,7.508532 17.9897251,7.7647959 17.323439,7.79042228 C16.1189988,7.81604867 15.4014598,7.45727923 14.8376793,7.20101533 L14.4020307,9.25112643 C14.9658112,9.50739034 15.9908668,9.73802785 17.0671751,9.73802785 C19.6298141,9.71240144 21.2699029,8.45670837 21.2955293,6.50910282 Z M11.326864,0.256263891 L7.40602644,9.55864316 L4.86901392,9.55864316 L2.92140835,2.12699029 C2.8189028,1.66571529 2.71639724,1.51195696 2.38325419,1.30694585 C1.79384724,0.999429176 0.845670837,0.691912505 0,0.512527782 L0.0512527782,0.256263891 L4.15147504,0.256263891 C4.6896292,0.256263891 5.12527782,0.615033338 5.25340976,1.20444029 L6.27846533,6.585982 L8.78985142,0.256263891 L11.326864,0.256263891 Z"/>
    </g>
  </g>
</svg>
